<?xml version="1.0" standalone="no"?>
<svg xmlns:xlink="http://www.w3.org/1999/xlink" id="wave" style="transform:rotate(0deg); transition: 0.3s" viewBox="0 0 1440 420" version="1.1" xmlns="http://www.w3.org/2000/svg"><defs><linearGradient id="sw-gradient-0" x1="0" x2="0" y1="1" y2="0"><stop stop-color="rgba(45.979, 54.134, 141.481, 1)" offset="0%"/><stop stop-color="rgba(121.503, 46.686, 130.097, 1)" offset="100%"/></linearGradient></defs><path style="transform:translate(0, 0px); opacity:1" fill="url(#sw-gradient-0)" d="M0,84L48,119C96,154,192,224,288,217C384,210,480,126,576,112C672,98,768,154,864,189C960,224,1056,238,1152,252C1248,266,1344,280,1440,301C1536,322,1632,350,1728,336C1824,322,1920,266,2016,231C2112,196,2208,182,2304,203C2400,224,2496,280,2592,294C2688,308,2784,280,2880,245C2976,210,3072,168,3168,168C3264,168,3360,210,3456,224C3552,238,3648,224,3744,238C3840,252,3936,294,4032,273C4128,252,4224,168,4320,119C4416,70,4512,56,4608,98C4704,140,4800,238,4896,287C4992,336,5088,336,5184,343C5280,350,5376,364,5472,322C5568,280,5664,182,5760,126C5856,70,5952,56,6048,77C6144,98,6240,154,6336,154C6432,154,6528,98,6624,77C6720,56,6816,70,6864,77L6912,84L6912,420L6864,420C6816,420,6720,420,6624,420C6528,420,6432,420,6336,420C6240,420,6144,420,6048,420C5952,420,5856,420,5760,420C5664,420,5568,420,5472,420C5376,420,5280,420,5184,420C5088,420,4992,420,4896,420C4800,420,4704,420,4608,420C4512,420,4416,420,4320,420C4224,420,4128,420,4032,420C3936,420,3840,420,3744,420C3648,420,3552,420,3456,420C3360,420,3264,420,3168,420C3072,420,2976,420,2880,420C2784,420,2688,420,2592,420C2496,420,2400,420,2304,420C2208,420,2112,420,2016,420C1920,420,1824,420,1728,420C1632,420,1536,420,1440,420C1344,420,1248,420,1152,420C1056,420,960,420,864,420C768,420,672,420,576,420C480,420,384,420,288,420C192,420,96,420,48,420L0,420Z"/></svg>